<svg width="70" height="70" viewBox="0 0 70 70" fill="none" xmlns="http://www.w3.org/2000/svg">
<circle cx="35" cy="35" r="35" fill="#EDEDED"/>
<path d="M14 22.9165V27.7498V30.1665V37.4165V39.8331V51.9165V54.3331C14 56.9914 16.0893 59.1664 18.6667 59.1664H51.3333C53.9117 59.1664 56 56.9914 56 54.3331V51.9165V39.8331V30.1665V22.9165H14Z" fill="#6A14DA"/>
<path d="M14 20.5V25.3333V27.75V35V37.4166V49.5V51.9166C14 54.5749 16.0893 56.7499 18.6667 56.7499H51.3333C53.9117 56.7499 56 54.5749 56 51.9166V49.5V37.4166V27.75V20.5H14Z" fill="#ECF0F1"/>
<path d="M14 18.0835V22.9168V25.3335V32.5835V35.0001V47.0834V49.5001C14 52.1584 16.0893 54.3334 18.6667 54.3334H51.3333C53.9117 54.3334 56 52.1584 56 49.5001V47.0834V35.0001V25.3335V18.0835H14Z" fill="#BDC3C7"/>
<path d="M14 15.6665V20.4998V22.9165V30.1665V32.5831V44.6665V47.0831C14 49.7414 16.0893 51.9164 18.6667 51.9164H51.3333C53.9117 51.9164 56 49.7414 56 47.0831V44.6665V32.5831V22.9165V15.6665H14Z" fill="#ECF0F1"/>
<path d="M18.6667 6C16.0893 6 14 8.175 14 10.8333V13.25V22.9166V27.75V30.1666V37.4166V39.8333V51.9166V54.3333C14 56.9916 16.0893 59.1666 18.6667 59.1666H23.3333V56.7499H19.8333C17.9004 56.7499 16.3333 55.0583 16.3333 53.1249C16.3333 50.9499 17.9004 49.4999 19.8333 49.4999H49H51.3333C53.9117 49.4999 56 47.3249 56 44.6666V42.2499V30.1666V20.5V13.25V10.8333C56 8.175 53.9117 6 51.3333 6H42H18.6667Z" fill="#6A14DA"/>
<path d="M25.6666 6V49.4999H28H49H51.3333C53.9116 49.4999 56 47.3249 56 44.6666V42.2499V30.1666V20.5V13.25V10.8333C56 8.175 53.9116 6 51.3333 6H42H28H25.6666Z" fill="#872BFF"/>
<path d="M23.3334 54.3333V59.1666V63.9999L29.1667 59.1666L35 63.9999V59.1666V54.3333H23.3334Z" fill="#E74C3C"/>
<path d="M35 51.9165H23.3334V54.3332H35V51.9165Z" fill="#C0392B"/>
</svg>
