<svg width="70" height="70" viewBox="0 0 70 70" fill="none" xmlns="http://www.w3.org/2000/svg">
<circle cx="35" cy="35" r="35" fill="#EDEDED"/>
<path d="M58.9059 43.882L19.959 52.877C18.4978 53.2344 17.0366 52.2218 16.7556 50.673L11.3042 24.4624C10.967 22.9136 11.9224 21.3647 13.3836 21.0669L52.3305 12.0719C53.7917 11.7145 55.2529 12.7272 55.5339 14.276L60.9292 40.5461C61.2664 42.0354 60.3672 43.5842 58.9059 43.882Z" fill="#872BFF"/>
<path d="M16.6994 50.673L11.3042 24.4624Z" fill="#383E56"/>
<path d="M56.2091 17.2135L11.9489 27.4307L13.0491 32.7856L57.3094 22.5684L56.2091 17.2135Z" fill="#5B5D6E"/>
<path opacity="0.15" d="M54.2976 28.2749V55.1407C54.2976 55.796 54.0728 56.4513 53.6794 56.9278C53.2298 57.3448 52.6116 57.5831 51.9934 57.5831H12.0911C10.5736 57.5831 9.39343 56.2725 9.39343 54.7237V27.8579C9.39343 27.2026 9.61823 26.5474 10.0116 26.0708C10.4612 25.6538 11.0794 25.4155 11.6977 25.4155H51.5438C53.0612 25.356 54.2976 26.6665 54.2976 28.2749Z" fill="black"/>
<path opacity="0.15" d="M54.2976 28.2749V55.1407C54.2976 55.796 54.0728 56.4513 53.6794 56.9278C53.1735 57.5831 52.4429 58.0001 51.5999 58.0001H11.6976C10.1802 58.0001 9 56.6895 9 55.1407V28.2749C9 27.3813 9.3934 26.6069 10.0116 26.0708C10.4612 25.6538 11.0794 25.4155 11.6976 25.4155H51.5437C53.0612 25.356 54.2976 26.6665 54.2976 28.2749Z" fill="black"/>
<path d="M51.5437 58.0001H11.6976C10.1802 58.0001 9 56.6895 9 55.1407V28.2749C9 26.6665 10.2364 25.4155 11.6976 25.4155H51.5437C53.0611 25.4155 54.2414 26.7261 54.2414 28.2749V55.1407C54.2414 56.6895 53.0611 58.0001 51.5437 58.0001Z" fill="#872BFF"/>
<path d="M21.9823 45.133H14.058C13.496 45.133 13.0464 44.6564 13.0464 44.0607V39.2356C13.0464 38.6399 13.496 38.1633 14.058 38.1633H21.9823C22.5443 38.1633 22.9939 38.6399 22.9939 39.2356V44.1203C22.9939 44.6564 22.5443 45.133 21.9823 45.133Z" fill="#E5CF89"/>
<path d="M48.79 52.9365H39.4607C39.2359 52.9365 39.0111 53.1152 39.0111 53.4131V53.9492C39.0111 54.1875 39.1797 54.4258 39.4607 54.4258H48.79C49.0148 54.4258 49.2396 54.2471 49.2396 53.9492V53.4131C49.2396 53.1152 49.0148 52.9365 48.79 52.9365Z" fill="#5B5D6E"/>
<path d="M37.2127 52.9365H23.1063C22.8815 52.9365 22.6567 53.1152 22.6567 53.4131V53.9492C22.6567 54.1875 22.8253 54.4258 23.1063 54.4258H37.2127C37.4375 54.4258 37.6623 54.2471 37.6623 53.9492V53.4131C37.6623 53.1152 37.4937 52.9365 37.2127 52.9365Z" fill="#5B5D6E"/>
</svg>
