<svg width="138" height="40" viewBox="0 0 138 40" fill="none" xmlns="http://www.w3.org/2000/svg">
<path d="M28.3333 6.66667H25V3.33333H15V6.66667H11.6667V3.33333C11.6667 1.5 13.1667 0 15 0H25C26.8333 0 28.3333 1.5 28.3333 3.33333V6.66667ZM40 13.3333V35C40 36.8333 38.5 38.3333 36.6667 38.3333H35C35 39.3333 34.3333 40 33.3333 40H30C29 40 28.3333 39.3333 28.3333 38.3333H11.6667C11.6667 39.3333 11 40 10 40H6.66667C5.66667 40 5 39.3333 5 38.3333H3.33333C1.5 38.3333 0 36.8333 0 35V13.3333C0 11.5 1.5 10 3.33333 10H36.6667C38.5 10 40 11.5 40 13.3333ZM6.66667 20C6.66667 21.8333 8.16667 23.3333 10 23.3333C11.8333 23.3333 13.3333 21.8333 13.3333 20C13.3333 18.1667 11.8333 16.6667 10 16.6667C8.16667 16.6667 6.66667 18.1667 6.66667 20ZM19 30L17.1667 25.3333L9.33333 28.3333L11.1667 33L19 30ZM29.5 25.8333L34.1667 21.1667L27.1667 14.1667L22.5 18.8333L29.5 25.8333Z" fill="#872BFF"/>
<path d="M70.1165 11.0455V28.5H66.929L59.3352 17.5142H59.2074V28.5H55.517V11.0455H58.7557L66.2898 22.0227H66.4432V11.0455H70.1165ZM79.0121 28.7557C77.6882 28.7557 76.5433 28.4744 75.5774 27.9119C74.6172 27.3437 73.8757 26.554 73.353 25.5426C72.8303 24.5256 72.5689 23.3466 72.5689 22.0057C72.5689 20.6534 72.8303 19.4716 73.353 18.4602C73.8757 17.4432 74.6172 16.6534 75.5774 16.0909C76.5433 15.5227 77.6882 15.2386 79.0121 15.2386C80.3359 15.2386 81.478 15.5227 82.4382 16.0909C83.4041 16.6534 84.1484 17.4432 84.6712 18.4602C85.1939 19.4716 85.4553 20.6534 85.4553 22.0057C85.4553 23.3466 85.1939 24.5256 84.6712 25.5426C84.1484 26.554 83.4041 27.3437 82.4382 27.9119C81.478 28.4744 80.3359 28.7557 79.0121 28.7557ZM79.0291 25.9432C79.6314 25.9432 80.1342 25.7727 80.5376 25.4318C80.9411 25.0852 81.245 24.6136 81.4496 24.017C81.6598 23.4205 81.7649 22.7415 81.7649 21.9801C81.7649 21.2188 81.6598 20.5398 81.4496 19.9432C81.245 19.3466 80.9411 18.875 80.5376 18.5284C80.1342 18.1818 79.6314 18.0085 79.0291 18.0085C78.4212 18.0085 77.9098 18.1818 77.495 18.5284C77.0859 18.875 76.7763 19.3466 76.5661 19.9432C76.3615 20.5398 76.2592 21.2188 76.2592 21.9801C76.2592 22.7415 76.3615 23.4205 76.5661 24.017C76.7763 24.6136 77.0859 25.0852 77.495 25.4318C77.9098 25.7727 78.4212 25.9432 79.0291 25.9432ZM87.8161 28.5V15.4091H91.2763V17.7188H91.4297C91.7024 16.9517 92.157 16.3466 92.7933 15.9034C93.4297 15.4602 94.1911 15.2386 95.0774 15.2386C95.9751 15.2386 96.7393 15.4631 97.37 15.9119C98.0007 16.3551 98.4212 16.9574 98.6314 17.7188H98.7678C99.0348 16.9688 99.5178 16.3693 100.217 15.9205C100.921 15.4659 101.754 15.2386 102.714 15.2386C103.935 15.2386 104.927 15.6278 105.688 16.4062C106.455 17.179 106.839 18.2756 106.839 19.696V28.5H103.217V20.4119C103.217 19.6847 103.023 19.1392 102.637 18.7756C102.251 18.4119 101.768 18.2301 101.188 18.2301C100.529 18.2301 100.015 18.4403 99.6456 18.8608C99.2763 19.2756 99.0916 19.8239 99.0916 20.5057V28.5H95.5717V20.3352C95.5717 19.6932 95.3871 19.1818 95.0178 18.8011C94.6541 18.4205 94.174 18.2301 93.5774 18.2301C93.174 18.2301 92.8104 18.3324 92.4865 18.5369C92.1683 18.7358 91.9155 19.017 91.728 19.3807C91.5405 19.7386 91.4467 20.1591 91.4467 20.642V28.5H87.8161ZM113.44 28.7472C112.604 28.7472 111.86 28.6023 111.207 28.3125C110.553 28.017 110.036 27.5824 109.656 27.0085C109.281 26.429 109.093 25.7074 109.093 24.8438C109.093 24.1165 109.227 23.5057 109.494 23.0114C109.761 22.517 110.124 22.1193 110.585 21.8182C111.045 21.517 111.567 21.2898 112.153 21.1364C112.744 20.983 113.363 20.875 114.011 20.8125C114.772 20.733 115.386 20.6591 115.852 20.5909C116.317 20.517 116.656 20.4091 116.866 20.267C117.076 20.125 117.181 19.9148 117.181 19.6364V19.5852C117.181 19.0455 117.011 18.6278 116.67 18.3324C116.335 18.0369 115.857 17.8892 115.238 17.8892C114.585 17.8892 114.065 18.0341 113.678 18.3239C113.292 18.608 113.036 18.9659 112.911 19.3977L109.553 19.125C109.724 18.3295 110.059 17.642 110.559 17.0625C111.059 16.4773 111.704 16.0284 112.494 15.7159C113.289 15.3977 114.21 15.2386 115.255 15.2386C115.982 15.2386 116.678 15.3239 117.343 15.4943C118.013 15.6648 118.607 15.929 119.124 16.2869C119.647 16.6449 120.059 17.1051 120.36 17.6676C120.661 18.2244 120.812 18.892 120.812 19.6705V28.5H117.369V26.6847H117.266C117.056 27.0938 116.775 27.4545 116.423 27.767C116.07 28.0739 115.647 28.3153 115.153 28.4915C114.658 28.6619 114.087 28.7472 113.44 28.7472ZM114.479 26.2415C115.013 26.2415 115.485 26.1364 115.894 25.9261C116.303 25.7102 116.624 25.4205 116.857 25.0568C117.09 24.6932 117.207 24.2812 117.207 23.821V22.4318C117.093 22.5057 116.937 22.5739 116.738 22.6364C116.545 22.6932 116.326 22.7472 116.082 22.7983C115.837 22.8437 115.593 22.8864 115.349 22.9261C115.104 22.9602 114.883 22.9915 114.684 23.0199C114.258 23.0824 113.886 23.1818 113.567 23.3182C113.249 23.4545 113.002 23.6392 112.826 23.8722C112.65 24.0994 112.562 24.3835 112.562 24.7244C112.562 25.2188 112.741 25.5966 113.099 25.858C113.462 26.1136 113.923 26.2415 114.479 26.2415ZM128.452 28.7131C127.458 28.7131 126.558 28.4574 125.751 27.946C124.95 27.429 124.313 26.6705 123.842 25.6705C123.376 24.6648 123.143 23.4318 123.143 21.9716C123.143 20.4716 123.384 19.2244 123.867 18.2301C124.35 17.2301 124.992 16.483 125.793 15.9886C126.6 15.4886 127.484 15.2386 128.444 15.2386C129.177 15.2386 129.788 15.3636 130.276 15.6136C130.771 15.858 131.168 16.1648 131.469 16.5341C131.776 16.8977 132.009 17.2557 132.168 17.608H132.279V11.0455H135.901V28.5H132.322V26.4034H132.168C131.998 26.767 131.756 27.1278 131.444 27.4858C131.137 27.8381 130.737 28.1307 130.242 28.3636C129.754 28.5966 129.157 28.7131 128.452 28.7131ZM129.603 25.8239C130.188 25.8239 130.683 25.6648 131.086 25.3466C131.495 25.0227 131.808 24.571 132.023 23.9915C132.245 23.4119 132.356 22.733 132.356 21.9545C132.356 21.1761 132.248 20.5 132.032 19.9261C131.816 19.3523 131.504 18.9091 131.094 18.5966C130.685 18.2841 130.188 18.1278 129.603 18.1278C129.006 18.1278 128.504 18.2898 128.094 18.6136C127.685 18.9375 127.376 19.3864 127.165 19.9602C126.955 20.5341 126.85 21.1989 126.85 21.9545C126.85 22.7159 126.955 23.3892 127.165 23.9744C127.381 24.554 127.691 25.0085 128.094 25.3381C128.504 25.6619 129.006 25.8239 129.603 25.8239Z" fill="#112B3C"/>
</svg>
