<svg width="70" height="80" viewBox="0 0 70 80" fill="none" xmlns="http://www.w3.org/2000/svg">
<circle cx="35" cy="45" r="35" fill="#EDEDED"/>
<path d="M31 2.48267H28.3334V21.1034H31V2.48267Z" fill="#5B5D6E"/>
<path d="M41.6666 2.48267H39V21.1034H41.6666V2.48267Z" fill="#5B5D6E"/>
<path d="M21.6668 72.0001H19.0001C18.2638 72.0001 17.6667 71.4442 17.6667 70.7587V64.5518H23V70.7587C23.0002 71.4442 22.4031 72.0001 21.6668 72.0001Z" fill="#464655"/>
<path d="M51 72.0001H48.3334C47.5971 72.0001 47 71.4442 47 70.7587V64.5518H52.3333V70.7587C52.3334 71.4442 51.7364 72.0001 51 72.0001Z" fill="#464655"/>
<path d="M52.3334 67.0346H17.6666C16.1938 67.0346 15 65.9231 15 64.5518V26.069C15 22.6411 17.9849 19.8621 21.6667 19.8621H48.3333C52.0151 19.8621 55 22.6411 55 26.069V64.5517C55 65.9231 53.8062 67.0346 52.3334 67.0346Z" fill="#872BFF"/>
<path d="M47 38.4827H23.0001C21.5273 38.4827 20.3335 39.5942 20.3335 40.9654V55.862C20.3335 57.2332 21.5273 58.3447 23.0001 58.3447H47.0002C48.473 58.3447 49.6668 57.2332 49.6668 55.862V40.9654C49.6666 39.5942 48.4728 38.4827 47 38.4827Z" fill="#6A14DA"/>
<path d="M47 33.5173H23.0001C21.5273 33.5173 20.3335 32.4058 20.3335 31.0345V27.3104C20.3335 25.9391 21.5273 24.8276 23.0001 24.8276H47.0002C48.473 24.8276 49.6668 25.9391 49.6668 27.3104V31.0345C49.6666 32.4058 48.4728 33.5173 47 33.5173Z" fill="#6A14DA"/>
<path d="M41.6666 3.72417H28.3333C27.5969 3.72417 26.9999 3.16828 26.9999 2.48273V1.24144C26.9999 0.555891 27.5969 0 28.3333 0H41.6666C42.4029 0 43 0.555891 43 1.24144V2.48288C43 3.16828 42.4029 3.72417 41.6666 3.72417Z" fill="#707487"/>
<path d="M15 63.3103H55V64.5517C55 65.923 53.8062 67.0345 52.3334 67.0345H17.6666C16.1938 67.0345 15 65.923 15 64.5517V63.3103Z" fill="#5B5D6E"/>
</svg>
